<?xml version="1.0" encoding="UTF-8" standalone="no"?>
<!-- See HTML for attribution. -->
<svg xml:space="preserve" version="1.1"
  style="image-rendering:optimizeQuality;shape-rendering:geometricPrecision;text-rendering:geometricPrecision" x="0px" y="0px" fill-rule="evenodd" clip-rule="evenodd" id="svg2" width="256"
  height="256" xmlns="http://www.w3.org/2000/svg" xmlns:svg="http://www.w3.org/2000/svg">
  <defs id="defs1">
    <clipPath clipPathUnits="userSpaceOnUse" id="clipPath37">
        <path style="opacity:1;mix-blend-mode:normal" transform="matrix(47.906487,0,0,47.906487,209.54703,-24.446536)"
          d="M 3.552,4.4127 C 3.459547,4.438252 3.366199,4.460864 3.2743646,4.488451 3.1577708,4.530351 3.0864945,4.6654773 3.1178887,4.7853595 3.1435167,4.8792465 3.1670027,4.973795 3.1944257,5.0671451 3.2350644,5.1835 3.3683272,5.2559994 3.4880909,5.2267657 3.5820047,5.2016236 3.6762073,5.1773499 3.7697195,5.1507976 3.8874131,5.111946 3.9620473,4.9786186 3.9340356,4.8579521 3.9090199,4.7631863 3.8842607,4.6682843 3.8576,4.573978 3.8194978,4.4582914 3.6901711,4.3840269 3.5710137,4.4083992 3.564624,4.4095892 3.5582801,4.4110252 3.552,4.4127 Z"
          id="path37" />
        <path style="opacity:1;mix-blend-mode:normal" transform="matrix(47.906487,0,0,47.906487,209.54703,-24.446536)"
          d="M 6.0899,3.3651 C 5.260901,2.8871434 4.4330066,2.4071522 3.6033172,1.9304672 3.485468,1.8708531 3.3372075,1.9954038 3.3786,2.1218 3.4079391,2.225393 3.523544,2.2519472 3.6029228,2.3070506 4.3825307,2.7564279 5.1610569,3.2077955 5.941341,3.6559287 6.0591671,3.7154871 6.2069112,3.5906453 6.1657,3.4645 6.1547782,3.4231153 6.1270911,3.3864169 6.0899,3.3651 Z"
          id="path38" />
        <path style="opacity:1;mix-blend-mode:normal" transform="matrix(47.906487,0,0,47.906487,209.54703,-24.446536)"
          d="M 3.8171,1.8329 C 3.81463,1.883851 3.899756,1.893824 3.9358257,1.926746 4.6450504,2.3361643 5.3542752,2.7455822 6.0635,3.155 6.2796289,3.018986 6.4751969,2.8267203 6.5441169,2.5732131 6.6198826,2.3110653 6.6274912,2.0336057 6.7168898,1.7745863 6.7623208,1.6049277 6.6522505,1.4359275 6.4985579,1.3690082 6.0190569,1.0931286 5.5411894,0.81427749 5.0606605,0.54026797 4.8807465,0.44624163 4.6853424,0.56020003 4.5772251,0.7075231 4.3369574,0.94523468 4.0023533,1.1189828 3.8854914,1.455895 3.8409599,1.5763994 3.8220589,1.7049726 3.8171,1.8329 Z"
          id="path39" />
        <path style="opacity:1;mix-blend-mode:normal" transform="matrix(47.906487,0,0,47.906487,209.54703,-24.446536)"
          d="M 3.5988,2.4994 C 3.3439125,3.2505303 2.6425238,3.7825184 1.8883,3.9672 1.8391,5.2697333 1.7899,6.5722667 1.7407,7.8748 2.2293333,7.0285 2.7179667,6.1822 3.2066,5.3359 2.9970963,5.1883865 2.9566278,4.8931434 2.9457749,4.6569827 2.9932649,4.3646012 3.3092705,4.2773619 3.5598989,4.2428467 3.809521,4.1925966 4.020706,4.4076953 4.0533989,4.6424064 4.159932,4.8840662 4.1078881,5.2067065 3.8341901,5.3083832 3.6722092,5.413576 3.3841811,5.3128677 3.2997599,5.5124385 2.8288399,6.328059 2.35792,7.1436795 1.887,7.9593 2.9904667,7.2654 4.0939333,6.5715 5.1974,5.8776 4.9802186,5.132082 5.090568,4.2588976 5.6132,3.6624 4.9417333,3.2747333 4.2702667,2.8870667 3.5988,2.4994 Z"
          id="path40" />
    </clipPath>
  </defs>
  <g id="g2" transform="matrix(0.84273124,0,0,0.84273124,-246.86788,0)" style="display:inline"
    clip-path="url(#clipPath37)">
    <path fill="#623804" d="M 0,0 H 595 V 51 H 0 Z" id="path1-0" />
    <path fill="#d56300" d="m 0,51 h 595 v 51 H 0 Z" id="path2" />
    <path fill="#fedd63" d="m 0,102 h 595 v 51 H 0 Z" id="path3" />
    <path fill="#fee6b8" d="m 0,153 h 595 v 51 H 0 Z" id="path4" />
    <path fill="#ffffff" d="m 0,204 h 595 v 51 H 0 Z" id="path5" />
    <path fill="#555555" d="m 0,255 h 595 v 51 H 0 Z" id="path6" />
    <path
      d="m 0,306 h 595 v 51 H 0 Z M 98.9,24.4 c -5.7,0 -11.5,1.3 -16.3,4.4 -21.4,13.8 8.5,19.5 13.4,22.3 4.7,2.7 22.4,22.9 29.7,-8.4 C 127.9,33 113.5,24.4 98.9,24.4 m 45.4,11.2 c -17.7,1.9 -0.8,43 23.6,44.4 16.5,0.9 28.9,-39.3 -23.6,-44.4 M 49.9,44.5 C 34.2,44 43.7,73.3 69,83.6 74.1,85.7 83.2,78.9 83.4,67.6 83.5,63.4 76.3,45.4 49.9,44.5 m 61,17.7 c -7.1,-0.1 -14.6,3 -22.8,11.5 -28.9,30.3 13.8,35.5 10.6,51.9 -9.7,48.5 -0.9,52.5 8.3,55.6 11.7,3.9 33.8,-33.4 43.1,-40.4 C 162.5,131.4 228,98.6 212.5,82 190.2,58.2 185.5,89.3 154.8,81 140.2,77.1 126.5,62.2 110.9,62.2 M 54.4,96.5 c -2.8,-0.1 -5.5,0.4 -8.1,1.6 -11.5,5.2 10.8,36.5 20.9,37.4 12.4,1.1 17.4,-8.9 17.6,-14.7 0.3,-7.6 -15.4,-24 -30.4,-24.3 m 4,46.7 c -4.5,0.1 -8,1.2 -9.6,3.3 -4.1,6.2 21.6,30.4 28.7,32 6.5,1.5 12.6,-13 11.4,-18.7 -2.2,-10.4 -19.2,-16.7 -30.5,-16.6"
      id="path7" />
  </g>
</svg>